<?xml version="1.0" standalone="no"?>
<!DOCTYPE svg PUBLIC "-//W3C//DTD SVG 20010904//EN"
 "http://www.w3.org/TR/2001/REC-SVG-20010904/DTD/svg10.dtd">
<svg version="1.0" xmlns="http://www.w3.org/2000/svg"
 width="1600.000000pt" height="825.000000pt" viewBox="0 0 1600.000000 825.000000"
 preserveAspectRatio="xMidYMid meet">
<metadata>
Created by potrace 1.16, written by Peter Selinger 2001-2019
</metadata>
<g transform="translate(0.000000,825.000000) scale(0.100000,-0.100000)"
fill="#000000" stroke="none">
<path d="M0 6939 c0 -1243 1 -1310 18 -1306 9 3 136 15 282 27 l265 22 224
-106 c167 -80 231 -106 249 -101 18 4 41 -5 88 -36 64 -41 84 -60 42 -38 -86
43 107 -92 618 -432 562 -375 592 -393 745 -459 218 -95 230 -102 259 -149 14
-23 42 -53 63 -67 21 -13 45 -40 54 -59 13 -27 23 -35 56 -41 24 -4 62 -23 96
-49 82 -63 1038 -444 1221 -487 l125 -29 162 47 162 47 95 -27 c53 -14 105
-26 117 -26 12 0 122 16 243 35 126 21 347 46 514 60 l293 25 207 -41 207 -40
475 6 475 6 265 -116 c255 -112 300 -136 300 -158 0 -6 17 -26 38 -45 20 -19
32 -37 26 -39 -9 -3 -8 -12 3 -33 17 -34 28 -40 20 -10 -3 11 -4 20 -2 20 1 0
29 -35 61 -77 31 -43 69 -93 82 -111 14 -18 20 -32 15 -30 -6 2 -11 -1 -11 -7
-1 -5 6 -9 13 -9 8 1 13 -2 10 -6 -3 -5 -1 -11 5 -15 13 -8 13 -35 1 -35 -5 0
-11 8 -14 18 -2 9 -4 0 -3 -20 1 -37 16 -55 16 -20 1 16 1 16 11 0 16 -28 15
-31 -4 -34 -27 -4 -32 -13 -13 -20 10 -4 22 0 29 10 14 19 42 13 51 -11 4 -11
2 -13 -9 -9 -13 5 -14 2 -4 -15 13 -25 2 -41 -12 -16 -12 21 -26 22 -46 2 -8
-8 -19 -13 -24 -10 -5 4 -9 2 -9 -2 0 -5 9 -14 21 -21 12 -8 18 -9 14 -3 -5
10 16 41 28 41 3 0 8 -11 11 -25 4 -14 10 -24 14 -24 21 3 32 -3 32 -17 0 -12
-3 -14 -13 -6 -7 6 -19 7 -26 3 -9 -6 -6 -10 11 -15 16 -4 19 -8 10 -14 -9 -6
-7 -13 8 -30 12 -13 17 -28 13 -38 -4 -12 -3 -15 5 -10 15 9 16 -6 1 -21 -8
-8 -8 -13 0 -17 6 -4 11 -3 11 2 0 6 7 13 16 16 10 4 14 2 11 -6 -2 -7 3 -22
12 -32 15 -18 15 -19 -1 -13 -10 4 -18 2 -18 -3 0 -6 -10 -10 -22 -11 l-23 0
23 -9 c12 -5 22 -15 22 -22 1 -21 39 32 65 90 14 29 33 61 43 70 11 9 59 66
108 127 61 74 90 104 92 92 2 -10 8 -15 13 -11 6 3 5 11 -2 20 -7 9 -8 18 -3
23 5 5 65 21 134 35 68 15 125 28 127 29 2 3 -12 157 -21 225 -4 23 -1 32 10
32 8 0 14 -8 14 -17 0 -14 2 -15 9 -5 7 12 44 9 213 -14 l204 -27 69 40 c51
30 93 45 154 57 61 11 102 26 150 55 l67 40 38 168 39 168 82 140 c46 77 96
172 111 210 25 66 59 109 76 99 4 -3 8 -1 8 4 0 6 27 27 59 48 67 43 71 53 71
187 0 64 -4 84 -20 104 -16 20 -20 41 -20 98 l0 72 32 9 c26 8 34 17 41 47 9
35 29 48 42 27 3 -6 -1 -10 -9 -10 -9 0 -16 -4 -16 -10 0 -5 8 -7 18 -3 10 4
8 -2 -8 -15 -22 -18 -23 -21 -7 -27 9 -4 17 -12 17 -17 0 -6 -6 -8 -14 -5 -16
6 -36 -11 -36 -30 0 -19 20 -16 37 5 14 16 14 16 8 -3 -4 -11 -8 -27 -9 -35 0
-8 -6 -21 -13 -27 -6 -7 -13 -18 -16 -25 -2 -7 -7 -10 -11 -6 -4 3 -2 16 4 28
9 17 9 25 -1 34 -9 8 -11 7 -6 -6 3 -9 2 -18 -3 -20 -4 -2 -10 -12 -12 -23 -2
-14 3 -21 18 -23 27 -4 48 -62 23 -62 -5 0 -8 4 -5 9 3 5 -2 15 -12 22 -15 12
-16 12 -6 -1 6 -8 12 -49 13 -90 2 -41 4 -77 6 -80 2 -3 0 -22 -4 -43 -8 -34
-7 -36 21 -42 16 -4 31 -5 34 -3 2 3 7 54 12 114 6 85 5 112 -5 122 -18 18
-16 23 4 15 12 -5 14 -3 7 8 -5 8 -9 26 -10 40 -1 14 -5 35 -8 47 -4 12 -3 22
2 22 18 0 32 -128 26 -246 l-6 -119 151 -79 c122 -64 151 -84 150 -100 0 -20
-1 -20 -8 -2 -5 14 -10 16 -15 8 -4 -7 -16 -12 -27 -12 -19 0 -19 -1 -5 -16
23 -22 20 -28 -6 -10 -12 9 -30 16 -39 16 -21 0 -54 -36 -40 -45 7 -4 6 -13
-3 -28 -7 -12 -16 -34 -20 -49 -4 -16 -13 -28 -21 -28 -8 0 -15 -6 -15 -13 0
-8 -9 -22 -20 -32 -18 -16 -23 -17 -45 -5 -18 10 -28 10 -38 2 -8 -7 -16 -10
-19 -7 -3 3 -11 -2 -19 -11 -12 -15 -10 -15 23 -1 49 20 88 5 88 -34 0 -23 4
-26 29 -23 28 3 29 3 21 -32 -7 -29 -6 -33 6 -23 8 6 14 20 14 30 0 11 4 19 9
19 10 0 17 26 26 95 3 22 8 54 10 70 3 17 2 24 -1 17 -3 -6 -11 -9 -17 -5 -6
4 -8 0 -4 -10 8 -22 -7 -65 -17 -49 -4 7 -4 18 1 25 4 6 6 20 5 29 -2 11 5 19
21 24 24 5 46 44 26 44 -5 0 -9 -8 -10 -17 0 -14 -2 -15 -6 -3 -3 8 -10 18
-16 21 -5 4 -5 9 2 13 6 4 11 3 11 -3 0 -7 8 -7 24 -1 l25 9 -14 -40 c-8 -22
-10 -37 -5 -34 5 3 19 1 31 -6 16 -8 23 -8 29 0 4 8 21 9 49 5 23 -4 39 -9 36
-12 -8 -8 126 -133 136 -127 4 3 10 19 14 35 4 16 11 33 17 36 10 7 8 -15 -8
-67 -3 -11 3 -18 18 -22 46 -11 98 -34 119 -53 22 -19 22 -19 17 3 -6 21 14
39 32 28 11 -7 1 -45 -12 -45 -18 0 4 -20 43 -41 22 -11 44 -31 49 -44 5 -14
15 -25 21 -25 8 0 9 -4 0 -13 -8 -11 -5 -16 14 -25 19 -9 25 -9 25 1 0 8 3 9
8 1 4 -6 66 -30 137 -54 l130 -43 125 17 c69 10 212 35 319 57 l195 39 165
108 166 107 41 78 c22 43 42 76 45 73 2 -2 5 7 6 21 2 37 18 48 116 77 48 15
95 30 104 33 11 4 14 3 9 -5 -4 -7 -2 -12 3 -12 6 0 11 6 11 14 0 7 13 16 28
19 26 5 83 64 271 279 l32 36 -35 63 -35 62 27 35 c25 33 25 35 10 62 -15 27
-15 35 9 132 13 56 26 113 29 126 8 39 84 17 84 -25 0 -18 5 -23 24 -23 29 0
91 -71 75 -87 -5 -5 -13 -29 -18 -54 -8 -40 -9 -41 -10 -11 -1 18 3 41 8 51 7
13 4 26 -12 49 -20 28 -26 31 -67 27 -51 -3 -71 -31 -23 -30 25 0 28 -4 31
-39 2 -21 -1 -35 -6 -32 -5 3 -18 -8 -30 -24 -16 -20 -18 -31 -10 -36 7 -5 4
-10 -10 -15 -12 -5 -22 -15 -22 -24 0 -8 -5 -15 -10 -15 -6 0 -5 -8 2 -19 9
-15 9 -23 -3 -37 -9 -11 -9 -15 -1 -10 7 4 12 2 12 -8 0 -8 -4 -16 -9 -18 -10
-3 1 -83 12 -95 4 -3 18 2 32 11 20 13 25 24 25 61 0 24 5 47 10 50 6 4 10
-10 10 -34 l0 -41 50 31 c27 16 59 47 72 67 22 36 22 36 28 12 4 -14 2 -28 -4
-32 -6 -4 -8 -10 -4 -13 10 -11 36 36 47 86 16 71 28 98 84 184 28 44 51 81
52 82 0 1 154 37 342 82 l341 80 58 -16 57 -17 -34 -11 c-27 -10 -36 -10 -42
1 -12 20 -34 17 -40 -6 -3 -11 -13 -23 -24 -26 -10 -4 -37 -25 -60 -47 -33
-32 -43 -48 -42 -72 l1 -30 8 33 c4 18 11 36 14 40 13 12 26 -23 22 -58 -5
-34 -5 -35 7 -7 6 15 14 27 19 27 11 0 10 -17 -1 -24 -5 -3 -7 -15 -4 -26 3
-11 0 -20 -6 -20 -6 0 -11 -9 -11 -20 0 -18 19 -30 20 -12 1 4 5 27 9 51 9 47
5 75 -10 65 -5 -3 -6 2 -3 11 4 9 3 15 -2 14 -21 -4 -24 2 -13 23 12 22 13 22
30 -17 13 -30 18 -35 18 -18 1 12 6 25 12 29 8 4 9 -1 4 -16 -4 -14 -3 -20 3
-16 5 3 13 -1 16 -10 9 -24 7 -44 -5 -44 -5 0 -7 4 -4 10 3 6 2 10 -4 10 -5 0
-8 -17 -6 -37 3 -21 2 -30 -1 -20 -3 9 -10 17 -16 17 -5 0 -8 -6 -5 -14 3 -7
1 -18 -4 -23 -6 -6 -4 -14 6 -23 13 -11 15 -10 9 6 -5 18 -5 18 6 1 12 -18 5
-57 -10 -57 -5 0 -12 9 -15 20 -4 11 -10 18 -14 15 -4 -2 -17 5 -29 15 -25 24
-32 25 -32 5 0 -8 5 -15 10 -15 6 0 9 -12 8 -27 -1 -16 2 -38 6 -50 10 -31 -2
-29 -14 2 -6 16 -14 23 -25 19 -8 -3 -15 -1 -15 5 0 6 -7 8 -15 5 -11 -5 -14
-1 -10 12 4 12 1 11 -6 -3 -16 -31 -24 -29 -43 11 -20 43 -20 60 -1 52 20 -8
42 -14 34 -9 -4 2 -6 12 -4 21 1 9 0 11 -2 4 -3 -8 -12 -10 -24 -7 -14 5 -22
-1 -31 -19 -6 -14 -17 -26 -25 -26 -7 0 -13 -8 -13 -17 0 -14 5 -12 27 8 19
18 25 20 20 7 -4 -11 0 -21 11 -27 14 -9 12 -10 -11 -11 -24 0 -26 -3 -18 -18
6 -11 6 -24 1 -32 -6 -10 -2 -22 12 -37 13 -14 24 -19 28 -13 7 11 60 -9 60
-22 0 -12 -14 -10 -28 4 -16 16 -25 4 -17 -21 4 -13 13 -18 26 -16 17 3 19 1
9 -10 -9 -11 -7 -12 8 -8 20 5 21 -3 13 -71 -1 -6 -6 -5 -13 2 -7 7 -16 12
-22 12 -5 0 -2 -6 7 -12 12 -9 14 -17 7 -28 -6 -10 -10 -11 -10 -2 0 6 -5 12
-11 12 -5 0 -7 -5 -3 -12 5 -7 2 -9 -9 -5 -8 3 -21 -1 -27 -9 -9 -10 -9 -14
-1 -14 6 0 11 5 11 11 0 5 5 7 11 3 8 -4 8 -9 0 -17 -6 -6 -11 -19 -11 -29 0
-10 -7 -21 -15 -24 -8 -4 -15 -16 -14 -28 0 -14 2 -16 6 -6 4 8 19 28 34 45
19 20 27 36 23 49 -4 11 -2 16 4 12 16 -10 65 79 57 104 -5 15 -3 18 9 14 11
-4 16 0 16 14 0 12 4 23 10 27 5 3 7 13 4 23 -5 13 -4 14 4 3 12 -17 33 -6 26
13 -8 21 12 28 38 15 62 -32 61 -32 53 -12 -14 35 -17 53 -12 68 10 23 35 7
47 -31 19 -56 34 -42 44 40 5 43 18 56 57 56 27 0 109 69 109 92 0 6 7 19 15
28 8 9 15 30 17 47 1 17 5 30 9 27 4 -2 19 11 33 28 47 59 67 75 108 87 42 13
59 8 40 -11 -17 -17 -15 -33 3 -18 19 16 43 6 56 -22 10 -23 10 -23 5 1 l-5
25 26 -27 c22 -21 24 -28 14 -41 -9 -10 -11 -34 -8 -71 3 -30 1 -58 -4 -61 -5
-3 -9 -17 -10 -32 0 -24 -1 -25 -8 -7 -5 11 -4 25 1 32 6 7 5 14 -2 18 -6 3
-8 10 -6 14 3 4 -16 7 -42 7 l-47 -1 -5 45 c-4 33 -7 40 -13 27 -4 -11 -5 -23
-1 -28 3 -5 -2 -9 -11 -9 -8 0 -18 7 -21 15 -4 8 -9 15 -13 15 -14 0 -28 -45
-21 -65 4 -11 3 -47 -2 -80 -5 -33 -7 -87 -4 -120 21 -214 31 -282 42 -298 6
-10 10 -27 7 -38 -3 -10 -1 -19 4 -19 5 0 9 14 8 30 -1 17 3 30 8 30 5 0 4 7
-3 15 -7 8 -8 15 -3 15 15 0 32 -22 26 -35 -2 -8 4 -26 13 -42 l18 -28 -23 20
-24 20 11 -21 c10 -19 18 -21 84 -19 63 3 184 23 240 41 9 3 54 46 99 97 74
83 127 127 294 245 39 28 45 30 28 11 -13 -14 -23 -34 -23 -44 0 -13 6 -9 25
16 13 19 29 45 35 58 6 14 16 21 25 17 8 -3 14 -1 12 4 -5 21 180 140 336 215
l166 80 0 1538 1 1537 -8000 0 -8000 0 0 -1311z m14746 -2025 c40 -26 56 -68
53 -137 -3 -68 -9 -77 -57 -77 -59 0 -95 32 -50 43 22 6 18 22 -5 22 -17 0
-21 36 -5 46 10 6 10 9 1 9 -30 0 4 108 35 110 1 0 14 -7 28 -16z m-3870 -690
c38 -23 44 -30 44 -60 0 -44 13 -49 97 -34 98 18 235 14 250 -6 8 -12 9 -22 1
-39 -9 -20 -16 -23 -39 -18 -19 3 -29 1 -29 -6 0 -7 -5 -9 -10 -6 -6 3 -22 -2
-38 -13 -15 -10 -45 -19 -66 -21 -22 -1 -43 -4 -47 -7 -18 -10 -129 -15 -129
-5 0 6 11 11 25 11 14 0 25 5 25 10 0 6 -10 10 -22 10 -42 0 -52 14 -39 50 25
75 13 105 -55 130 -21 8 -24 7 -24 -11 0 -19 2 -20 16 -8 14 11 18 11 29 -4 6
-9 15 -13 19 -10 4 4 6 -4 4 -19 -2 -15 -8 -31 -13 -35 -4 -4 -5 -2 -1 5 5 8
0 12 -13 12 -11 0 -26 7 -35 15 -22 22 -32 18 -11 -5 10 -11 15 -23 10 -28 -4
-4 -10 -1 -12 6 -3 6 -8 10 -12 8 -4 -3 -7 20 -6 50 0 64 12 68 81 28z"/>
<path d="M13714 4706 c-3 -14 -12 -27 -19 -30 -8 -3 -17 -26 -21 -51 -4 -28
-10 -42 -14 -35 -6 9 -13 5 -25 -13 -9 -14 -13 -32 -9 -38 4 -7 3 -9 -3 -6 -5
4 -14 -13 -20 -38 -6 -28 -6 -42 0 -38 5 3 6 -4 2 -18 -10 -31 -12 -258 -3
-252 5 2 3 -8 -2 -23 -8 -19 -7 -30 2 -41 10 -12 13 -12 20 1 5 9 6 21 2 27
-3 6 7 4 23 -5 l30 -15 53 62 c33 38 40 49 18 28 -20 -18 -41 -31 -46 -27 -5
3 -13 -1 -16 -10 -3 -8 -2 -12 4 -9 6 3 10 1 10 -4 0 -19 -22 -12 -46 16 -31
36 -59 181 -39 203 7 8 16 40 20 70 4 30 16 65 26 78 10 13 25 47 35 75 9 29
23 61 30 72 16 23 18 45 4 45 -5 0 -12 -11 -16 -24z"/>
<path d="M15653 4680 c-11 -16 -10 -18 2 -14 13 5 13 3 1 -21 -8 -15 -12 -33
-10 -40 3 -7 1 -16 -5 -20 -6 -3 -11 -12 -11 -18 0 -7 4 -6 10 3 5 8 10 11 10
6 0 -6 -9 -20 -21 -32 -19 -20 -19 -23 -4 -38 21 -21 31 -20 47 2 7 11 24 25
38 32 30 15 90 79 90 95 0 21 -34 44 -80 54 -58 13 -53 14 -67 -9z"/>
<path d="M15603 4483 c-16 -6 -17 -33 -2 -33 6 0 3 -7 -5 -16 -9 -8 -21 -12
-26 -9 -12 8 -3 -43 12 -61 5 -7 2 -16 -7 -24 -8 -6 -14 -19 -13 -28 2 -33 -2
-53 -11 -48 -5 4 -7 -11 -4 -33 4 -26 1 -42 -9 -52 -8 -7 -13 -21 -11 -30 3
-9 0 -20 -6 -23 -6 -4 -11 -17 -11 -29 l0 -22 13 22 c6 12 23 43 37 70 13 26
33 61 45 78 11 16 34 56 50 89 17 33 37 62 45 65 11 3 10 -2 -4 -18 -11 -11
-14 -21 -8 -21 7 0 12 -4 12 -10 0 -5 -6 -10 -14 -10 -9 0 -12 -7 -9 -19 3
-11 -2 -21 -11 -24 -17 -7 -22 -37 -6 -37 11 0 42 58 60 113 7 22 18 51 26 65
24 47 15 48 -25 6 -21 -23 -48 -45 -60 -49 -12 -3 -19 -11 -16 -16 4 -5 2 -9
-3 -9 -13 0 -13 62 0 77 22 26 -4 51 -39 36z"/>
<path d="M15903 4283 c-14 -13 -17 -24 -12 -43 12 -41 10 -50 -9 -50 -23 0
-42 19 -42 41 0 10 -5 21 -11 25 -7 4 -9 -2 -7 -17 2 -13 -5 -32 -14 -41 -10
-10 -18 -25 -18 -35 0 -15 1 -15 18 0 10 10 22 14 26 10 4 -4 4 0 0 10 -3 9
-2 17 3 17 20 0 12 -56 -13 -91 -14 -21 -24 -44 -22 -51 3 -7 -4 -21 -15 -31
-11 -9 -17 -20 -14 -24 4 -3 15 1 24 9 40 35 124 64 108 37 -4 -6 -9 -8 -12
-5 -3 3 -27 -17 -53 -44 -27 -28 -52 -50 -57 -50 -4 0 -1 5 7 10 12 8 13 10 1
10 -8 0 -22 7 -31 15 -15 14 -18 14 -23 1 -4 -10 -1 -13 7 -10 12 5 16 -7 17
-51 0 -16 2 -17 9 -5 5 8 13 11 17 6 4 -4 -2 -16 -15 -27 -14 -11 -20 -23 -16
-30 5 -8 3 -9 -7 -4 -12 7 -12 6 -1 -7 12 -16 7 -47 -11 -59 -5 -4 -4 -9 2
-13 12 -8 41 50 41 82 0 24 45 92 74 112 45 31 77 72 66 86 -24 28 38 99 70
79 6 -4 10 6 10 24 0 37 -22 42 -38 9 -6 -13 -11 -17 -11 -10 -1 18 -28 15
-35 -4 -4 -9 -9 -14 -12 -11 -4 3 3 17 14 31 10 14 22 22 26 19 3 -4 13 2 20
13 13 16 12 21 -1 37 -9 9 -23 17 -32 17 -12 0 -12 -3 -3 -12 7 -7 12 -19 11
-27 0 -10 -4 -7 -9 7 -5 12 -15 22 -22 22 -8 1 -5 7 6 15 11 8 17 17 14 20 -2
3 -14 -3 -25 -12z"/>
<path d="M14670 4120 c-11 -8 -9 -9 11 -4 23 5 28 1 36 -23 l10 -28 12 23 c7
12 16 20 22 17 14 -9 11 -25 -5 -25 -17 0 -15 -32 2 -38 7 -2 12 -20 12 -39 0
-36 0 -36 20 -18 22 20 36 13 42 -19 2 -13 -8 -24 -34 -38 -26 -14 -38 -27
-38 -41 0 -12 -4 -28 -9 -36 -5 -7 -6 -23 -3 -35 6 -19 7 -18 12 8 4 22 12 32
35 37 19 6 32 4 36 -3 8 -13 23 134 17 160 -4 12 1 18 13 19 11 1 19 -3 19 -8
0 -6 5 -7 10 -4 8 5 7 11 -1 21 -6 7 -15 11 -20 8 -5 -3 -23 1 -39 10 -17 8
-30 10 -30 5 0 -6 -4 -7 -10 -4 -5 3 -10 15 -10 25 0 10 -3 21 -7 23 -20 12
-90 16 -103 7z"/>
<path d="M1354 3365 c-4 -8 -12 -15 -20 -15 -8 0 -14 -7 -14 -15 0 -8 -7 -15
-15 -15 -10 0 -14 -8 -11 -22 2 -13 9 -22 15 -20 17 3 13 -15 -4 -22 -8 -3
-15 -12 -15 -19 0 -8 -8 -21 -17 -28 -15 -12 -16 -12 -10 5 6 14 4 16 -5 9 -7
-6 -25 -8 -40 -6 -16 2 -28 0 -28 -6 0 -13 25 -21 47 -15 11 3 28 -5 43 -21
21 -22 22 -29 12 -45 -7 -11 -11 -34 -11 -52 1 -24 3 -27 6 -10 5 23 17 29 27
13 11 -17 45 1 55 28 5 14 10 20 10 14 1 -18 41 -16 41 1 0 8 -4 18 -10 21 -6
4 -7 -1 -3 -11 4 -12 3 -15 -5 -10 -14 8 -15 16 -3 35 7 10 13 11 30 2 15 -8
21 -9 21 -1 0 6 5 8 10 5 6 -3 10 2 10 11 0 14 -3 15 -12 6 -18 -18 -38 -15
-31 6 6 15 5 15 -10 3 -9 -7 -17 -9 -17 -3 0 16 26 22 40 9 10 -10 10 -7 1 11
-9 18 -9 22 1 20 7 -2 12 4 10 14 -2 10 2 26 7 37 9 16 4 27 -24 61 -19 23
-35 36 -35 29 0 -10 -3 -10 -12 -1 -16 16 -27 15 -34 -3z"/>
<path d="M9128 2937 c-18 -24 -39 -42 -46 -39 -6 2 -12 -1 -12 -8 0 -6 -6 -10
-14 -8 -7 2 -33 -12 -56 -31 -35 -28 -40 -35 -27 -43 18 -10 12 -38 -9 -38 -8
0 -11 6 -8 15 4 8 1 15 -6 15 -20 0 -6 -45 15 -48 30 -6 38 -18 26 -39 -10
-17 -10 -17 -11 0 0 20 -11 22 -28 5 -15 -15 -52 16 -52 44 0 10 -5 18 -10 18
-6 0 -8 -11 -4 -25 4 -18 2 -25 -8 -25 -10 0 -15 11 -15 30 0 17 6 30 12 30 7
0 18 7 25 15 8 9 9 15 2 15 -6 0 -14 -4 -17 -10 -3 -5 -14 -10 -23 -10 -10 0
-23 -10 -31 -22 -13 -20 -12 -22 1 -11 13 11 14 5 10 -44 -3 -33 -1 -54 5 -50
5 3 9 -4 10 -16 0 -12 -1 -16 -4 -9 -3 6 -11 12 -19 12 -11 0 -11 -5 -2 -25 6
-14 15 -25 20 -25 4 0 8 -9 8 -20 0 -11 5 -20 11 -20 6 0 8 10 5 23 -4 15 -2
13 6 -5 7 -16 15 -28 20 -28 4 0 5 -7 1 -15 -5 -14 -8 -14 -25 2 -11 10 -24
28 -29 41 -5 12 -13 22 -19 22 -6 0 -9 -4 -5 -9 3 -5 0 -13 -6 -16 -5 -4 -8
-13 -5 -21 3 -9 -2 -14 -14 -14 -11 0 -20 5 -20 12 0 6 -3 8 -7 5 -3 -4 -12
-2 -20 4 -10 9 -11 15 -2 26 10 11 9 12 -5 7 -22 -8 -21 -13 11 -46 25 -27 26
-29 9 -41 -17 -12 -16 -14 12 -14 27 0 33 5 43 34 11 36 31 36 25 0 -2 -12 1
-27 5 -33 6 -7 3 -16 -6 -24 -13 -11 -16 -11 -13 0 2 7 -3 15 -11 18 -10 3
-12 0 -8 -12 4 -9 2 -16 -2 -16 -5 0 -12 6 -14 13 -3 6 -6 8 -6 2 0 -5 3 -16
8 -24 11 -17 45 0 79 40 13 16 31 29 41 29 9 0 26 7 38 15 12 8 30 12 40 9 17
-5 17 -5 1 6 -24 15 -23 52 3 84 12 15 19 35 17 44 -3 10 1 23 9 30 16 16 17
59 1 65 -10 3 -10 7 1 20 11 14 11 17 1 17 -8 0 -11 2 -9 5 3 2 15 2 28 -2 15
-4 19 -8 11 -13 -7 -5 -8 -10 -2 -13 9 -6 142 134 142 150 0 4 -9 14 -20 20
-17 11 -23 8 -52 -30z"/>
<path d="M299 2674 c-7 -8 -20 -19 -30 -25 -15 -8 -17 -6 -12 7 5 14 3 14 -16
3 -12 -8 -19 -20 -16 -27 3 -9 -1 -11 -14 -7 -39 12 -46 -56 -6 -71 8 -4 15
-13 15 -21 0 -13 3 -13 25 1 29 19 33 20 32 4 -1 -34 5 -47 30 -63 23 -15 25
-15 20 -2 -3 9 -1 19 5 23 7 5 8 2 3 -6 -6 -10 -4 -12 8 -7 14 5 15 2 7 -19
-14 -36 -13 -40 15 -58 24 -16 26 -15 52 14 24 27 33 31 75 29 38 -2 53 2 73
21 27 26 33 42 11 34 -8 -3 -17 -1 -20 4 -3 5 3 12 14 15 14 4 23 -3 34 -24
11 -22 12 -29 2 -29 -7 0 -17 -15 -23 -34 -9 -28 -8 -34 3 -29 18 7 18 -11 1
-29 -17 -17 -30 -51 -17 -43 6 3 10 -4 10 -18 0 -21 4 -23 50 -24 28 0 50 4
50 8 0 5 -4 9 -10 9 -5 0 -10 5 -10 11 0 8 4 8 14 0 7 -6 21 -8 31 -5 12 5 13
9 5 14 -7 4 -9 13 -6 19 4 6 12 9 17 5 6 -3 7 4 4 19 -5 17 -2 26 9 30 10 4
13 1 10 -7 -3 -8 -1 -17 5 -21 7 -3 8 0 5 9 -3 9 -2 16 3 16 5 0 10 6 10 14 0
8 -6 12 -15 8 -11 -4 -14 -1 -9 11 9 25 -5 20 -26 -8 -10 -14 -15 -30 -12 -35
8 -13 -17 -38 -32 -33 -7 3 -9 11 -6 19 3 7 10 11 17 8 6 -3 0 4 -14 15 -14
12 -20 21 -15 20 22 -3 35 2 35 13 0 6 -3 8 -6 5 -10 -9 -46 12 -39 24 4 5 1
9 -4 9 -6 0 -11 7 -11 16 0 10 5 14 15 10 12 -4 13 -2 7 12 -5 9 -7 23 -4 31
3 8 0 11 -7 7 -12 -8 -4 21 12 42 7 9 6 11 -7 6 -18 -7 -21 7 -5 23 9 9 7 10
-10 6 -11 -3 -21 -12 -21 -21 0 -13 -3 -12 -15 4 -14 19 -14 19 -16 -1 -1 -11
-2 -28 -1 -37 2 -21 -2 -22 -29 -8 -16 9 -19 7 -19 -12 -1 -21 -2 -20 -15 7
l-15 30 5 -40 c4 -31 3 -36 -5 -22 -6 9 -18 17 -26 17 -8 0 -14 6 -12 13 2 6
-2 12 -7 12 -6 0 -9 -3 -7 -7 1 -5 -3 -8 -8 -8 -7 0 -9 -14 -5 -37 l7 -38 -20
35 c-11 20 -26 34 -35 32 -9 -1 -18 2 -22 8 -3 5 0 10 8 10 18 0 40 47 26 55
-5 4 -9 3 -8 -2 4 -15 -13 -43 -22 -37 -5 3 -4 14 2 26 15 27 -7 52 -22 25 -6
-9 -14 -15 -20 -12 -15 10 -10 -2 8 -21 16 -16 16 -16 -3 -10 -16 5 -21 2 -21
-11 0 -10 4 -21 9 -24 5 -3 2 -9 -7 -12 -9 -4 -13 -3 -10 3 3 6 1 10 -5 10 -8
0 -9 7 -5 18 4 9 9 26 10 37 2 11 8 32 14 47 12 31 0 45 -20 22z"/>
<path d="M8230 2496 c0 -9 -10 -12 -30 -10 -32 4 -38 -4 -18 -24 8 -8 8 -12 1
-12 -6 0 -13 -7 -16 -14 -4 -10 -1 -13 7 -10 8 3 17 0 22 -7 4 -7 3 -10 -4 -5
-6 3 -13 2 -17 -4 -4 -6 -11 -8 -16 -5 -20 13 -8 -13 13 -27 25 -17 17 -38
-12 -31 -11 3 -18 8 -16 12 3 4 -4 7 -14 7 -17 0 -17 -3 -4 -27 7 -15 19 -29
26 -32 10 -4 9 -6 -1 -6 -8 -1 -28 11 -43 26 -15 15 -28 22 -28 16 0 -6 7 -14
16 -17 9 -3 14 -13 11 -21 -4 -9 -1 -12 9 -8 12 4 13 1 4 -21 -6 -18 -6 -26 1
-26 6 0 8 -4 5 -9 -6 -9 -54 -7 -64 3 -3 4 0 12 6 18 9 9 12 8 12 -7 0 -18 0
-18 14 1 9 12 11 23 5 30 -5 6 -6 13 -3 16 2 3 -2 8 -11 12 -11 4 -15 1 -13
-12 2 -9 -2 -16 -9 -15 -7 2 -10 -4 -7 -12 4 -8 1 -15 -6 -15 -7 0 -10 -6 -7
-14 3 -7 0 -13 -6 -12 -7 0 -12 -3 -12 -9 0 -5 12 -9 28 -7 15 1 27 -2 27 -7
0 -18 -21 -23 -37 -9 -14 11 -15 11 -11 -2 6 -17 -8 -50 -22 -50 -16 0 -22 44
-11 73 12 31 6 53 -15 61 -11 4 -15 0 -14 -17 3 -36 1 -40 -15 -27 -12 10 -15
10 -15 -4 0 -9 6 -16 14 -16 8 0 18 -5 22 -12 5 -7 2 -9 -8 -5 -12 4 -17 -4
-21 -36 -7 -48 0 -59 60 -94 27 -16 42 -31 39 -39 -6 -15 21 -47 33 -39 5 2 6
17 3 31 -4 22 -2 26 11 21 18 -7 31 31 16 49 -7 8 -7 19 0 31 10 20 23 52 26
68 1 6 3 13 5 18 1 4 3 10 5 15 4 16 19 50 47 112 17 36 34 81 38 100 4 19 11
43 15 53 4 10 3 17 -4 17 -6 0 -11 -6 -11 -14z"/>
<path d="M14901 2483 c1 -5 0 -10 -1 -13 -7 -15 -6 -69 1 -65 4 3 17 0 28 -7
15 -9 23 -9 35 2 9 7 20 10 23 6 4 -4 3 -10 -2 -14 -6 -4 -11 -24 -12 -46 -1
-21 -7 -44 -12 -49 -6 -6 -11 -19 -11 -28 0 -10 -3 -19 -7 -21 -5 -1 -21 -30
-38 -63 -16 -33 -40 -75 -53 -92 -36 -49 -16 -40 31 13 22 25 42 58 43 72 4
38 37 93 51 87 13 -4 15 4 16 83 0 17 5 33 11 33 6 1 23 3 39 5 15 1 27 -1 27
-5 0 -16 -30 -33 -47 -27 -10 4 -14 4 -10 0 4 -4 2 -13 -4 -21 -17 -20 1 -16
49 12 l42 24 0 -25 c0 -13 4 -24 9 -24 5 0 5 17 -1 39 -7 26 -15 38 -23 34 -8
-2 -29 11 -49 31 -38 40 -46 43 -46 21 0 -22 -17 -18 -23 5 -3 12 -14 20 -27
20 -11 0 -18 5 -15 10 3 6 -1 10 -9 10 -9 0 -15 -3 -15 -7z"/>
<path d="M15845 2480 c-3 -6 -3 -19 0 -31 5 -16 3 -20 -12 -17 -13 2 -17 -2
-15 -19 2 -12 -3 -25 -9 -29 -9 -5 -10 -2 -6 10 5 14 3 15 -13 6 -25 -13 -28
-18 -61 -112 -23 -66 -26 -84 -17 -102 15 -27 11 -47 -13 -64 -10 -7 -19 -19
-18 -25 0 -9 2 -9 6 1 2 6 12 12 21 12 12 0 13 -3 4 -12 -17 -17 -15 -33 3
-18 8 7 15 19 15 26 0 8 5 14 10 14 6 0 10 11 10 25 0 14 8 29 21 35 15 9 18
15 10 24 -6 7 -12 28 -14 46 -3 26 2 40 20 58 14 14 30 38 35 53 11 33 28 38
28 9 0 -21 8 -25 25 -12 13 9 17 134 4 127 -5 -4 -9 -18 -9 -33 -1 -24 -2 -25
-11 -9 -6 10 -8 25 -5 33 6 16 0 19 -9 4z"/>
<path d="M7841 2330 c-2 -14 -5 -19 -8 -12 -9 22 -25 12 -21 -13 6 -29 -4 -32
-26 -9 -9 8 -16 12 -16 7 0 -12 16 -35 24 -34 20 3 25 -1 20 -14 -4 -8 -9 -13
-13 -11 -7 5 -6 -83 2 -90 3 -3 -1 -21 -9 -40 -15 -37 -10 -64 9 -45 13 13 36
-15 37 -46 0 -12 4 -24 9 -27 5 -3 12 -22 15 -41 4 -20 15 -50 25 -68 23 -39
44 -173 31 -197 -6 -12 -5 -24 4 -36 13 -17 15 -15 25 24 10 35 9 45 -3 57 -8
8 -17 41 -21 72 -5 50 -36 140 -65 194 -4 9 -6 60 -4 115 4 87 -10 278 -15
214z"/>
<path d="M15094 2278 c1 -16 -4 -22 -14 -20 -8 2 -12 0 -7 -4 10 -11 -23 -44
-44 -44 -10 0 -23 8 -29 18 -10 15 -10 14 -5 -5 4 -16 1 -23 -14 -28 -10 -3
-25 -12 -32 -21 -10 -12 -9 -13 7 -8 18 7 18 7 2 -13 -10 -11 -18 -23 -18 -28
0 -4 9 4 21 19 24 30 28 31 55 11 16 -13 17 -16 4 -26 -11 -8 -12 -12 -2 -16
8 -3 0 -13 -20 -27 -18 -12 -37 -32 -43 -44 -5 -12 -15 -22 -21 -22 -12 0 -29
-28 -26 -42 1 -5 -2 -8 -8 -8 -5 0 -10 -9 -10 -20 0 -11 4 -20 9 -20 15 0 36
32 33 52 -2 10 4 21 12 24 9 3 16 12 16 19 0 7 12 23 26 36 15 13 40 37 55 52
16 16 34 25 40 22 8 -6 8 -2 0 13 -15 29 -15 29 19 28 16 -1 28 -5 26 -11 -2
-5 -9 -9 -15 -7 -6 1 -11 -5 -11 -13 0 -13 3 -13 20 -3 16 10 20 21 17 48 -3
31 -7 35 -30 33 -30 -2 -35 8 -12 27 16 13 21 50 7 50 -5 0 -8 -10 -8 -22z"/>
<path d="M15377 2178 c-20 -22 -34 -45 -30 -50 3 -6 1 -8 -4 -5 -6 4 -16 0
-23 -8 -10 -12 -9 -15 4 -15 23 0 20 -14 -6 -25 -12 -6 -23 -18 -24 -27 -3
-21 6 -23 26 -5 8 6 0 -4 -19 -25 -22 -24 -40 -35 -56 -33 -17 1 -22 -2 -18
-12 3 -8 2 -18 -3 -22 -5 -3 -14 -15 -21 -26 -6 -11 -16 -19 -22 -18 -6 2 -11
-6 -11 -17 0 -11 -4 -20 -10 -20 -5 0 -10 -7 -10 -16 0 -9 -9 -32 -21 -50 -11
-19 -16 -34 -10 -34 10 0 91 105 135 173 10 16 31 36 47 45 16 10 29 22 29 27
0 6 15 16 33 23 22 9 28 15 19 20 -9 6 -7 13 10 29 13 11 31 23 41 26 15 6 16
10 6 29 -7 13 -15 35 -18 49 l-6 26 -38 -39z"/>
<path d="M15565 2047 c8 -13 16 -37 18 -53 2 -16 7 -35 11 -42 10 -16 -5 -15
-28 3 -18 14 -21 12 -38 -13 -10 -15 -18 -35 -18 -45 0 -26 24 -47 41 -36 19
12 29 11 29 -1 0 -5 -6 -10 -14 -10 -8 0 -17 -4 -20 -9 -4 -5 3 -7 14 -4 11 3
23 9 26 14 8 13 23 11 20 -3 -5 -31 -18 -58 -27 -58 -5 0 -9 -9 -9 -21 0 -19
1 -19 16 -5 18 18 34 21 34 5 0 -5 -4 -8 -9 -4 -5 3 -13 -5 -17 -17 -4 -13
-12 -26 -18 -30 -8 -5 -7 -8 2 -8 7 0 16 8 19 18 4 9 12 21 20 25 7 4 13 14
13 21 0 7 9 21 19 30 16 15 19 29 17 80 -2 35 -10 76 -18 92 -9 16 -21 42 -27
57 -7 19 -17 27 -26 23 -8 -3 -17 -1 -20 4 -4 6 -11 10 -16 10 -5 0 -3 -10 6
-23z"/>
<path d="M15329 1719 c-18 -16 -44 -40 -58 -52 -14 -12 -24 -21 -22 -20 2 1
10 -4 18 -12 12 -12 11 -17 -7 -35 -11 -11 -20 -26 -20 -32 0 -7 9 -2 19 11
l18 24 7 -28 c6 -22 9 -25 21 -15 8 7 15 17 15 22 0 5 7 17 16 26 15 15 16 14
10 -5 -5 -14 -2 -23 10 -27 16 -6 16 -7 0 -19 -16 -12 -16 -13 4 -14 13 -1 18
2 14 9 -5 7 -1 9 9 5 11 -4 20 1 27 13 14 26 12 37 -3 16 -15 -20 -47 -12 -46
13 0 9 3 11 5 4 4 -9 15 -7 39 7 31 18 34 18 39 2 3 -12 4 -11 3 3 -2 14 -9
19 -25 18 -28 -3 -29 17 -2 48 21 27 26 19 9 -14 -11 -21 -10 -21 7 -5 15 15
16 21 5 44 -9 20 -15 24 -23 16 -17 -17 -33 -15 -19 2 7 8 8 17 3 20 -9 6 -35
-21 -45 -47 -4 -10 -15 -20 -24 -24 -10 -4 -21 -11 -25 -17 -5 -7 -8 -7 -8 2
0 6 8 20 18 30 60 63 68 85 11 31z"/>
<path d="M15890 1505 c0 -9 -7 -18 -15 -21 -17 -7 -21 -44 -4 -44 6 0 9 6 6
14 -3 8 1 17 9 20 21 8 17 -18 -6 -39 -10 -9 -19 -25 -18 -34 1 -9 0 -25 -2
-36 -3 -28 -17 28 -19 77 0 20 -5 39 -9 42 -4 2 -4 -32 0 -77 4 -45 10 -147
13 -227 3 -79 8 -146 11 -149 2 -3 10 1 16 7 11 11 13 43 8 110 -3 36 7 53 19
33 6 -9 10 -7 14 8 6 23 42 29 51 9 3 -7 3 4 0 25 -6 37 9 72 27 61 5 -3 9 10
9 28 -1 31 -1 32 -15 14 -8 -11 -15 -25 -16 -30 0 -6 -5 0 -11 14 -6 15 -12
20 -15 13 -3 -7 -9 -13 -13 -13 -5 0 -2 12 5 28 8 15 12 35 9 46 -4 12 -2 16
5 12 12 -8 14 19 2 47 -6 16 -9 16 -18 5 -14 -19 -23 -58 -12 -58 14 0 11 -34
-6 -56 -11 -15 -15 -16 -15 -4 -1 8 -3 29 -6 45 -2 17 3 49 12 73 16 43 14 72
-6 72 -5 0 -10 -7 -10 -15z"/>
<path d="M1277 1301 c-21 -25 -30 -53 -28 -89 3 -43 29 -69 68 -67 22 1 30 -2
26 -12 -3 -9 0 -11 10 -7 8 3 18 1 22 -5 3 -6 -1 -11 -9 -11 -9 0 -16 -8 -17
-17 0 -15 -2 -14 -9 3 -4 12 -17 23 -27 26 -19 5 -58 -15 -58 -30 0 -4 -3 -6
-7 -5 -3 1 -12 -5 -20 -14 -10 -13 -10 -17 0 -20 6 -3 12 -12 12 -20 0 -13 -3
-13 -15 -3 -8 7 -22 10 -30 6 -13 -4 -14 -10 -5 -26 6 -11 15 -20 21 -20 6 0
5 9 -2 23 -11 20 -11 21 5 8 9 -8 14 -21 11 -29 -3 -9 0 -12 9 -9 10 4 14 0
13 -14 -2 -23 -13 -25 -21 -3 -9 23 -28 6 -20 -18 4 -15 3 -18 -6 -13 -9 5
-10 1 -5 -16 18 -57 48 -57 107 -1 21 20 39 34 41 31 2 -2 8 -26 13 -54 7 -38
14 -51 29 -53 11 -2 25 -11 32 -19 6 -8 16 -12 22 -8 6 3 9 0 5 -8 -3 -8 -1
-18 5 -22 8 -4 7 -11 -3 -21 -17 -17 -30 -19 -20 -2 4 6 3 8 -4 4 -7 -4 -7
-17 -1 -41 6 -19 8 -39 4 -44 -9 -16 19 -19 41 -4 20 13 22 11 28 -18 3 -17 3
-35 0 -40 -3 -5 0 -9 7 -9 16 0 169 155 169 171 -1 9 -8 5 -21 -10 -11 -13
-22 -22 -25 -19 -2 3 11 19 31 36 19 17 35 35 35 40 0 5 7 15 15 22 8 6 13 17
12 23 -1 7 8 12 20 11 18 0 20 3 12 23 -12 33 -12 36 7 29 10 -4 14 -1 11 6
-2 7 -16 12 -31 11 -18 -1 -26 3 -26 14 0 10 -10 4 -30 -17 -31 -33 -40 -62
-17 -58 6 2 20 12 30 22 24 27 30 16 6 -12 -10 -13 -23 -21 -28 -18 -5 4 -14
-2 -20 -11 -7 -12 -10 -13 -11 -4 0 11 -3 11 -15 1 -8 -6 -20 -8 -26 -4 -8 4
-9 3 -5 -5 4 -6 2 -20 -6 -29 -12 -15 -11 -16 5 -3 9 8 21 11 24 7 4 -4 1 -11
-7 -16 -13 -8 -12 -10 3 -10 9 0 17 -4 17 -10 0 -5 -8 -10 -17 -10 -12 0 -14
-3 -6 -8 7 -4 9 -13 4 -21 -6 -9 -11 -10 -15 -3 -4 6 -14 9 -24 6 -11 -4 -13
-3 -5 3 8 5 9 14 3 23 -5 8 -12 11 -16 7 -4 -4 -13 -2 -21 4 -18 16 -17 1 2
-18 17 -16 16 -35 0 -34 -6 0 -14 16 -18 35 -7 27 -14 36 -30 37 -18 0 -19 2
-5 7 12 5 14 12 9 21 -5 7 -6 23 -4 35 4 17 3 18 -6 6 -5 -8 -13 -11 -17 -7
-4 3 -1 14 7 24 12 15 12 16 -3 10 -12 -4 -18 -2 -18 8 0 8 5 15 11 15 6 0 17
7 26 15 8 8 18 13 21 11 4 -2 7 9 7 25 0 34 1 33 -20 13 -15 -15 -17 -15 -30
2 -8 12 -10 23 -4 29 15 15 10 28 -6 15 -11 -9 -15 -9 -15 -1 0 7 -5 9 -11 5
-8 -4 -7 -9 2 -15 8 -5 10 -9 4 -9 -5 0 -1 -7 9 -15 11 -8 17 -18 13 -21 -8
-8 -37 21 -37 36 0 7 -8 10 -19 7 -15 -4 -10 9 24 62 24 36 41 68 38 71 -3 3
-8 -1 -10 -7 -6 -18 -33 -16 -33 2 0 8 6 15 13 15 7 0 23 18 36 40 14 25 18
40 10 40 -9 0 -8 4 1 15 7 8 16 13 20 10 4 -3 10 1 13 9 5 11 0 12 -24 3 -17
-7 -32 -21 -36 -35 -5 -21 -6 -22 -18 -5 -15 20 -13 22 -30 -33 -4 -14 -7 -14
-20 0 -9 8 -22 13 -30 10 -8 -4 -15 -1 -15 5 0 6 5 11 10 11 6 0 1 9 -10 20
-11 11 -24 20 -29 20 -6 0 -13 4 -16 10 -3 6 1 7 9 4 9 -3 16 -2 16 3 0 15
-29 11 -43 -6z"/>
<path d="M8158 1254 c9 -18 8 -20 -9 -19 -11 1 -25 8 -30 16 -11 18 -12 4 0
-19 5 -9 18 -35 29 -57 22 -45 42 -129 42 -180 0 -19 3 -35 6 -35 13 0 31 27
28 42 -2 19 22 58 37 58 5 0 9 -7 7 -16 -6 -32 17 -24 28 9 8 26 7 36 -4 47
-8 7 -12 23 -9 36 2 13 -1 31 -8 40 -9 14 -16 14 -33 5 -12 -6 -22 -16 -22
-22 0 -6 -4 -8 -9 -5 -5 4 -7 -3 -4 -14 4 -16 2 -19 -11 -14 -9 3 -16 12 -16
19 0 6 -9 20 -20 30 -11 10 -20 28 -20 39 1 20 1 20 15 2 14 -18 15 -18 25 9
6 15 8 30 5 33 -3 3 -5 2 -5 -3 0 -4 -7 -1 -17 6 -15 13 -15 12 -5 -7z"/>
<path d="M3955 1075 c3 -24 1 -35 -8 -35 -9 0 -9 -2 0 -8 8 -5 8 -13 -1 -31
-11 -19 -14 -21 -19 -7 -4 9 -2 16 3 16 18 0 10 19 -9 25 -11 3 -18 12 -15 19
3 8 -3 12 -17 11 -13 -1 -25 -7 -27 -13 -2 -7 -8 -10 -13 -7 -5 4 -6 -1 -3
-10 4 -10 13 -13 25 -10 14 5 17 2 13 -10 -4 -10 -13 -14 -22 -10 -9 3 -13 3
-10 -1 4 -4 2 -16 -4 -28 -10 -19 -10 -20 7 -6 16 13 17 12 14 -5 -2 -10 -8
-17 -14 -16 -10 3 -23 -24 -24 -49 -1 -13 0 -13 9 0 6 10 10 11 10 3 0 -22 21
-14 48 17 15 17 30 30 35 30 8 0 -7 -21 -35 -48 -14 -12 -15 -18 -5 -25 8 -6
6 -7 -5 -3 -10 3 -18 1 -18 -4 0 -6 -7 -10 -16 -10 -8 0 -13 4 -10 8 3 5 -1 9
-9 9 -11 0 -15 -13 -15 -47 0 -37 5 -51 25 -70 21 -20 25 -21 31 -7 3 9 12 13
21 10 13 -5 13 -3 4 15 -10 20 -9 22 11 22 13 0 29 -9 36 -20 7 -12 23 -20 41
-20 23 0 30 -6 35 -26 4 -14 4 -35 1 -47 -6 -21 -5 -21 8 1 7 12 16 20 20 16
3 -4 15 -1 24 7 10 7 7 0 -7 -15 -19 -22 -21 -28 -7 -23 20 7 21 3 6 -25 -7
-13 -7 -18 -1 -14 6 3 13 -3 17 -14 7 -21 25 -28 25 -9 0 6 9 9 20 6 14 -4 25
1 33 14 6 10 17 19 23 19 6 0 16 11 22 25 7 16 20 25 34 25 17 0 19 3 10 9
-16 10 -13 43 5 48 6 2 21 -5 32 -16 l20 -20 6 21 c5 13 10 17 17 10 13 -13
-49 -83 -67 -76 -7 3 -16 -4 -20 -15 -3 -12 -14 -21 -23 -21 -9 0 -30 -9 -46
-19 -16 -11 -34 -17 -41 -15 -6 3 -17 -6 -23 -20 -10 -22 -9 -24 6 -19 9 4 20
11 25 17 5 8 10 6 16 -3 7 -11 4 -18 -12 -26 -12 -6 -23 -18 -25 -27 -3 -15 1
-16 28 -7 17 6 29 14 25 17 -6 7 24 42 37 42 5 0 4 -9 -2 -21 -10 -17 -9 -20
7 -17 21 3 25 -26 9 -54 -18 -31 7 -43 43 -22 17 10 31 22 31 26 0 4 5 8 12 8
6 0 -1 -14 -17 -30 -25 -26 -27 -33 -15 -40 12 -8 13 -11 1 -19 -7 -5 -9 -11
-4 -14 9 -6 30 10 62 49 11 13 11 18 1 24 -9 5 -9 9 -1 14 6 4 11 2 11 -5 0
-9 3 -9 14 0 12 10 14 6 14 -24 0 -20 2 -38 4 -40 1 -2 23 10 47 26 24 17 41
24 38 17 -3 -9 2 -14 14 -14 12 0 18 5 14 13 -3 10 0 11 15 3 26 -14 30 -13
30 9 0 10 8 21 18 25 9 3 24 9 32 13 13 6 13 4 0 -13 -14 -18 -14 -18 9 -3 14
9 29 29 34 45 6 16 14 32 20 35 5 4 5 9 -2 13 -6 4 -11 4 -11 -1 0 -4 -5 -1
-10 7 -8 12 -13 11 -33 -8 -29 -27 -37 -28 -30 -2 6 23 20 35 50 44 18 6 22 4
17 -8 -7 -19 7 -21 25 -3 10 10 11 9 6 -4 -4 -10 -2 -20 3 -23 12 -7 48 33 56
64 3 14 3 19 0 12 -3 -6 -11 -9 -16 -6 -6 4 -9 3 -6 -2 4 -5 -4 -10 -16 -10
-13 -1 -23 5 -24 12 -1 8 -3 21 -4 29 -1 8 -5 15 -8 15 -14 0 -30 -28 -25 -42
4 -9 -1 -18 -10 -22 -10 -4 -14 -2 -9 5 4 8 -1 9 -17 4 -24 -8 -24 -7 -6 13
11 11 16 26 12 31 -3 7 2 11 14 11 11 0 23 5 26 10 4 6 10 8 15 5 5 -3 11 -1
15 5 7 11 -4 13 -50 10 -16 -1 -27 1 -23 5 8 8 -34 45 -51 45 -6 0 -7 8 -4 18
6 15 5 15 -11 3 -15 -13 -16 -15 -2 -23 18 -10 22 -38 5 -38 -5 0 -8 -4 -4 -9
3 -5 -3 -16 -13 -23 -10 -7 -21 -23 -24 -35 -8 -32 19 -30 34 2 6 14 15 25 20
25 13 0 9 -11 -17 -45 -13 -18 -22 -35 -18 -38 6 -7 -8 -22 -59 -60 -21 -15
-38 -24 -38 -18 0 5 6 11 13 14 9 4 9 7 -1 18 -11 11 -14 10 -18 -8 -3 -12
-12 -24 -19 -27 -21 -8 -26 22 -6 36 15 11 16 15 6 25 -7 6 -17 9 -21 5 -5 -4
2 6 16 21 22 25 22 27 5 22 -18 -6 -18 -5 -2 5 20 13 41 4 33 -16 -3 -8 -1
-14 4 -14 6 0 10 7 10 15 0 9 6 12 15 9 10 -4 15 0 15 10 0 13 -4 15 -19 7
-14 -8 -20 -7 -24 4 -4 10 -1 12 11 8 13 -5 14 -3 5 7 -12 13 -10 17 31 62 18
20 18 21 1 35 -11 7 -23 13 -29 13 -5 0 -18 7 -28 17 -12 10 -18 12 -18 4 0
-7 -5 -9 -11 -5 -7 4 -10 -1 -7 -12 2 -13 12 -19 29 -18 21 1 25 -3 21 -18 -2
-10 1 -18 7 -18 7 0 9 -4 6 -10 -4 -6 -11 -5 -19 3 -8 6 -11 16 -8 21 3 5 -2
7 -11 3 -10 -4 -17 -2 -17 4 0 6 -7 9 -15 5 -8 -3 -15 -1 -15 5 0 6 -3 8 -8 5
-4 -2 -16 3 -27 11 -20 15 -20 15 2 10 15 -3 20 -1 16 9 -7 20 7 39 18 23 6
-11 11 -11 20 -2 9 9 19 8 43 -4 31 -15 31 -15 11 5 -11 10 -24 17 -29 14 -5
-3 -7 5 -4 16 6 23 -7 31 -15 10 -3 -7 -6 -4 -6 7 -1 12 -15 27 -37 38 -35 17
-37 17 -49 0 -7 -10 -17 -14 -21 -10 -5 4 -2 12 5 16 20 13 6 61 -18 61 -10 0
-21 -3 -24 -7 -9 -9 13 -34 24 -27 5 3 9 0 9 -5 0 -14 -6 -14 -31 -1 -23 13
-25 37 -4 60 14 15 14 18 0 30 -12 10 -18 8 -35 -11 -10 -13 -19 -27 -20 -30
0 -3 -13 -6 -30 -6 -16 0 -27 4 -24 8 2 4 0 10 -5 14 -6 3 -15 -4 -21 -16 -21
-38 -22 -12 -1 31 14 28 15 38 5 30 -10 -9 -14 -9 -14 -1 0 6 -9 11 -20 11
-22 0 -27 15 -7 23 10 5 0 7 -63 12 -8 0 -20 4 -27 8 -9 6 -11 -2 -8 -28z"/>
<path d="M2210 1030 c0 -6 -4 -9 -9 -5 -5 3 -12 1 -16 -5 -11 -17 -14 -50 -5
-50 10 0 -17 -57 -31 -65 -5 -4 -9 -11 -9 -17 0 -7 6 -6 15 2 12 10 15 10 15
-1 0 -7 10 -3 26 12 20 19 24 20 18 5 -4 -10 -17 -30 -30 -43 -18 -19 -22 -33
-18 -52 6 -25 6 -26 -10 -6 l-17 20 3 -20 c2 -14 -2 -19 -14 -17 -10 2 -18 -2
-18 -8 0 -7 -9 -24 -21 -38 -13 -17 -16 -28 -9 -30 7 -3 5 -12 -7 -25 -15 -18
-15 -20 -1 -8 9 7 21 10 27 7 5 -3 11 0 14 6 4 10 7 11 18 1 9 -10 10 -13 1
-13 -7 0 -12 -5 -12 -11 0 -8 5 -8 15 1 12 10 15 10 15 -1 0 -10 3 -10 12 -1
19 19 30 14 18 -8 -11 -21 -8 -115 4 -128 4 -4 6 0 4 8 -1 8 3 14 10 12 18 -3
15 19 -5 34 -13 9 -15 16 -7 24 7 7 17 5 34 -10 22 -19 40 -19 40 1 0 6 13 29
28 52 40 58 49 75 32 60 -16 -14 -40 0 -40 23 0 8 -4 14 -10 14 -5 0 -10 -4
-10 -10 0 -5 -4 -10 -9 -10 -11 0 -9 40 3 59 4 7 5 15 1 19 -8 8 -28 -26 -31
-53 -1 -11 -4 -24 -5 -30 -2 -5 0 -25 4 -43 6 -29 10 -33 29 -27 22 7 22 6 7
-10 -16 -16 -18 -16 -37 3 -14 14 -19 28 -15 42 6 22 6 22 -21 5 -36 -24 -57
-6 -28 23 12 12 24 37 27 56 5 25 13 36 30 40 14 4 29 20 38 43 13 32 24 31
18 -1 -1 -5 6 -17 15 -27 9 -10 13 -23 9 -28 -3 -6 2 -11 12 -11 14 0 15 -2 4
-9 -10 -7 -10 -10 -1 -16 7 -4 16 -2 20 5 6 10 9 9 12 -1 4 -11 8 -10 21 3 9
9 17 20 17 23 0 13 -37 54 -44 48 -3 -3 -6 -2 -6 4 0 6 -9 13 -21 16 -13 4
-18 10 -14 17 4 7 4 15 -1 19 -5 3 -14 15 -20 26 -6 11 -22 22 -35 23 -28 4
-51 22 -28 22 17 0 25 55 9 65 -5 3 -10 1 -10 -5z"/>
<path d="M8159 988 c-5 -16 -2 -68 4 -68 4 0 7 -9 7 -20 0 -13 -7 -20 -18 -20
-13 0 -18 -7 -17 -22 2 -13 8 -22 14 -20 13 2 15 -14 2 -22 -13 -9 -32 19 -25
38 8 21 -5 21 -22 -1 -17 -24 -29 -10 -13 15 7 11 19 18 26 15 7 -3 13 0 13 6
0 6 8 8 18 4 16 -5 16 -5 -1 13 -15 16 -19 17 -27 5 -7 -13 -11 -13 -27 0 -16
12 -17 12 -6 -1 7 -10 9 -21 3 -30 -5 -8 -10 -12 -12 -10 -2 3 -12 22 -22 43
-22 43 -36 37 -38 -16 -1 -20 -5 -37 -10 -37 -5 0 -6 -5 -2 -11 5 -8 10 -6 16
5 5 9 6 21 3 26 -3 6 -2 10 3 10 6 0 8 10 5 23 -4 21 -4 21 9 2 7 -11 13 -23
14 -27 1 -5 3 -9 4 -10 7 -9 7 -79 -1 -83 -14 -9 -11 -25 6 -25 8 0 15 5 15
12 0 9 3 9 12 0 10 -10 10 -15 -2 -22 -8 -6 -22 -7 -30 -4 -12 4 -12 3 -3 -7
9 -9 9 -16 2 -25 -8 -10 -5 -12 14 -8 22 3 24 1 20 -18 -4 -16 17 1 65 52 39
41 71 80 71 85 0 11 -42 -33 -97 -100 -18 -22 -30 -32 -26 -22 3 10 1 17 -5
17 -6 0 -11 5 -11 10 0 6 6 10 14 8 21 -4 69 70 63 98 -2 13 0 21 4 18 5 -3 9
20 9 50 0 33 -4 56 -11 56 -5 0 -7 5 -4 10 3 6 4 10 1 10 -3 0 -6 -1 -7 -2z"/>
<path d="M1765 872 c-3 -8 -11 -12 -18 -9 -6 2 -20 -5 -29 -16 -30 -34 -20
-64 15 -46 12 7 17 7 13 1 -3 -6 -1 -12 6 -14 9 -3 8 -10 -5 -23 -15 -14 -22
-15 -40 -6 -12 6 -14 9 -5 7 10 -3 20 -1 23 4 4 6 -4 10 -17 10 -15 0 -27 -9
-35 -25 -11 -24 -1 -36 12 -15 13 21 27 10 21 -16 -6 -22 -4 -25 14 -19 11 4
20 2 20 -4 0 -6 -6 -11 -14 -11 -7 0 -13 -10 -13 -23 0 -13 -13 -36 -28 -53
l-28 -29 7 27 c4 17 2 28 -7 31 -7 3 -5 6 5 6 9 1 20 6 24 13 5 7 3 8 -7 3
-12 -8 -12 -6 0 8 8 10 11 20 8 24 -11 10 -66 -57 -60 -73 4 -10 0 -12 -11 -8
-10 4 -17 1 -17 -7 -6 -57 -4 -79 7 -79 6 0 14 -10 18 -22 5 -19 8 -21 16 -8
9 13 11 13 20 0 8 -13 10 -12 10 3 0 9 5 17 10 17 6 0 10 7 10 15 0 18 -1 18
-34 5 -20 -7 -26 -6 -26 4 0 9 12 13 33 13 18 -1 38 2 44 6 7 4 14 -1 18 -14
5 -16 9 -18 15 -9 5 7 6 20 3 29 -4 13 -3 13 5 2 8 -11 10 -11 15 0 5 12 7 12
15 1 11 -17 22 -17 32 -2 5 8 10 7 18 -3 9 -11 5 -13 -24 -12 -40 2 -58 -20
-48 -60 8 -33 37 -33 70 0 14 14 29 25 34 25 6 0 10 5 10 10 0 6 4 10 9 10 15
0 65 54 79 85 33 74 48 99 60 103 8 2 5 -10 -8 -34 -12 -20 -19 -45 -17 -55 3
-10 -1 -20 -9 -23 -8 -3 -14 -10 -14 -16 0 -6 4 -9 9 -5 15 9 24 -14 12 -29
-6 -7 -9 -20 -5 -29 3 -8 1 -18 -5 -22 -6 -3 -11 2 -11 12 -1 16 -3 15 -20 -6
-11 -13 -20 -28 -20 -35 0 -6 7 -2 15 8 22 29 37 9 25 -34 -5 -19 -6 -50 -2
-69 l7 -33 35 33 35 33 -30 6 c-32 7 -33 15 -10 64 13 25 13 27 0 16 -10 -8
-15 -9 -15 -2 0 6 5 14 10 17 6 4 8 11 5 16 -4 5 3 22 14 38 27 37 27 49 1 26
-11 -10 -20 -13 -20 -7 0 6 5 14 10 17 6 3 10 11 10 16 0 6 -4 7 -10 4 -5 -3
-10 -1 -10 4 0 6 4 11 10 11 5 0 7 6 4 13 -2 7 2 21 11 32 15 20 15 20 9 0 -5
-17 -4 -17 5 -4 7 10 7 27 1 47 -6 21 -5 34 2 38 7 4 8 2 4 -4 -10 -16 6 -15
24 1 7 6 5 -1 -5 -18 l-18 -30 21 19 c25 22 30 61 8 53 -8 -3 -16 -1 -18 5 -3
7 -12 6 -28 -3 -33 -18 -50 -41 -45 -56 2 -7 0 -14 -5 -14 -6 -1 -14 -3 -20
-4 -5 -1 -13 -3 -17 -4 -4 0 2 -8 13 -16 10 -8 14 -15 7 -15 -6 0 -15 5 -18
10 -10 16 -27 0 -22 -20 3 -13 0 -16 -12 -13 -20 5 -39 -15 -44 -45 -5 -31
-19 -43 -37 -32 -13 9 -13 11 0 19 8 6 15 20 15 33 1 13 5 29 9 36 5 9 1 10
-17 3 -30 -12 -37 -6 -37 29 0 17 9 34 23 44 12 9 17 15 11 12 -7 -3 -14 3
-17 14 -3 11 -2 19 2 18 28 -3 39 4 34 22 -3 11 -1 20 3 20 5 0 15 10 23 23
11 18 8 17 -17 -7 -19 -17 -35 -25 -43 -20 -8 5 -11 2 -7 -8 7 -18 -18 -18
-47 1 -14 8 -15 11 -3 7 18 -5 42 16 31 27 -3 4 -1 7 5 7 7 0 12 4 12 8 0 13
-39 8 -45 -6z"/>
<path d="M15870 825 c0 -9 5 -13 10 -10 12 7 14 -8 3 -19 -12 -12 -12 -139 -1
-153 7 -9 7 -13 -1 -13 -6 0 -11 5 -11 11 0 5 -4 8 -10 4 -15 -10 -43 42 -36
69 3 14 2 28 -4 31 -5 3 -10 23 -10 43 0 36 0 36 -16 14 -9 -14 -30 -24 -56
-28 -22 -4 -52 -17 -66 -29 -23 -19 -24 -25 -14 -53 6 -18 7 -34 2 -37 -5 -3
-7 -12 -3 -20 6 -18 -15 -46 -31 -43 -6 2 -12 0 -14 -5 -1 -4 -8 -20 -16 -35
-33 -65 -27 -212 10 -226 8 -3 11 0 7 10 -3 7 -2 22 2 32 5 9 9 22 10 27 4 28
27 64 65 100 56 53 83 108 77 154 -3 29 14 91 26 91 8 0 10 -90 4 -174 -3 -54
16 -56 47 -7 29 45 31 51 15 51 -5 0 -7 -4 -4 -10 3 -5 2 -10 -2 -10 -5 0 -14
-14 -21 -32 -18 -48 -26 -27 -8 24 9 26 20 42 28 39 7 -2 20 -6 29 -8 22 -6
26 22 20 131 -4 59 -10 91 -18 94 -7 2 -13 -4 -13 -13z"/>
<path d="M230 593 c0 -7 -11 -15 -25 -19 -14 -3 -22 -10 -19 -15 3 -5 9 -7 14
-4 5 3 3 -9 -3 -25 -11 -28 -13 -29 -24 -14 -12 16 -13 16 -19 0 -4 -10 1 -25
11 -35 16 -18 15 -20 -5 -26 -15 -5 -34 1 -60 19 -22 14 -48 26 -58 26 -10 0
-23 5 -30 12 -9 9 -12 -12 -12 -95 0 -102 1 -107 19 -98 14 8 22 6 33 -7 19
-22 41 -85 27 -76 -6 3 -16 -2 -23 -12 -9 -12 -15 -14 -20 -6 -4 7 -14 12 -22
12 -10 0 -14 -12 -14 -44 0 -39 3 -45 28 -51 l27 -7 -27 -10 c-25 -9 -28 -14
-26 -59 0 -32 5 -48 12 -46 6 2 10 11 8 21 -3 15 16 21 58 17 12 -1 12 1 -2 9
-11 7 -14 17 -10 32 6 23 6 23 13 -2 7 -25 7 -25 14 -3 4 13 12 20 21 16 8 -3
15 1 15 8 1 8 2 19 4 24 1 6 3 16 3 23 2 10 7 10 22 2 16 -9 20 -8 20 5 0 8 4
15 10 15 5 0 12 11 16 25 5 20 10 23 35 18 38 -7 38 12 0 32 -17 8 -33 20 -36
25 -4 6 10 1 29 -10 34 -19 41 -18 36 5 -1 6 4 4 11 -2 22 -22 29 -15 27 28
l-1 42 -19 -23 c-18 -22 -18 -22 -18 -1 0 12 5 21 11 21 7 0 8 11 4 31 -4 17
-8 37 -9 43 -1 6 -6 21 -10 34 -5 16 -3 29 7 40 13 15 13 21 2 47 -16 38 -44
74 -45 58z"/>
<path d="M8687 468 c15 -20 22 -57 12 -64 -5 -3 -9 0 -9 5 0 6 -5 11 -11 11
-7 0 -5 -10 5 -25 13 -20 14 -29 6 -43 -11 -16 -11 -16 -6 0 7 22 -10 33 -18
12 -3 -8 -11 -12 -17 -8 -6 3 -14 1 -18 -5 -6 -9 -16 -8 -39 2 -18 7 -30 16
-27 19 3 3 -8 5 -25 4 -36 -1 -39 -13 -5 -22 14 -3 22 -10 19 -15 -3 -5 0 -8
7 -7 7 2 13 -3 14 -9 0 -15 19 -18 21 -3 3 22 4 24 16 12 9 -9 15 -7 25 6 13
16 14 15 10 -5 -3 -12 0 -24 7 -27 7 -3 6 -8 -4 -15 -12 -8 -12 -11 3 -17 16
-6 15 -9 -8 -28 -14 -12 -25 -29 -25 -38 0 -9 -4 -20 -10 -23 -5 -3 -10 -11
-10 -16 0 -6 4 -8 9 -4 5 3 12 1 16 -5 4 -6 11 -7 17 -4 7 4 8 -4 4 -23 -6
-24 -1 -37 19 -62 28 -32 51 -42 41 -16 -4 12 -2 13 17 2 12 -6 25 -16 29 -22
4 -5 8 -6 8 -1 0 4 11 1 24 -8 27 -17 58 -12 50 8 -6 17 22 41 31 26 9 -15 22
-12 29 6 3 8 2 12 -4 9 -5 -3 -14 14 -21 37 -18 70 -79 104 -65 36 4 -20 2
-27 -6 -22 -8 5 -9 -1 -4 -20 4 -18 3 -25 -4 -21 -6 3 -10 -3 -10 -15 0 -12 4
-19 9 -16 5 3 11 -1 14 -8 5 -12 1 -13 -24 -4 -16 5 -29 14 -29 20 0 5 -4 7
-9 4 -5 -3 -11 4 -13 17 -3 17 0 23 14 23 12 0 17 -5 13 -14 -3 -8 0 -12 7
-10 14 5 18 47 5 55 -6 3 -7 1 -3 -5 16 -26 -12 -10 -33 18 -13 18 -16 29 -9
28 8 -2 13 7 13 23 0 20 4 25 17 21 10 -2 15 -8 12 -13 -3 -5 2 -6 11 -2 14 5
13 9 -9 30 l-25 23 20 36 c11 20 18 42 15 49 -6 16 13 35 36 35 12 0 18 -7 18
-22 0 -17 -3 -19 -12 -10 -21 21 -29 13 -13 -12 12 -18 13 -26 4 -32 -8 -4 -9
-3 -5 4 4 7 1 12 -8 12 -18 0 -20 -8 -7 -29 5 -7 13 -11 18 -8 5 3 15 1 23 -5
12 -8 12 -9 -3 -4 -13 4 -16 2 -10 -7 4 -6 8 -19 8 -27 4 -41 6 -47 20 -47 8
0 15 6 15 14 0 7 -7 13 -15 13 -19 0 -19 14 -1 29 12 10 15 6 21 -19 4 -16 13
-30 21 -30 19 0 18 9 -3 33 -17 19 -17 20 0 14 25 -9 21 8 -5 21 l-23 11 23 7
c27 8 27 14 5 40 -23 25 -25 52 -4 53 41 2 49 5 44 18 -4 10 -9 11 -16 4 -15
-15 -27 -14 -27 3 0 18 -40 17 -59 -1 -8 -8 -22 -11 -35 -7 -11 4 -18 3 -13
-1 4 -5 -1 -17 -10 -27 -15 -17 -15 -20 -3 -28 13 -8 13 -10 -1 -10 -9 0 -20
10 -24 23 -6 19 -8 19 -12 4 -2 -9 -9 -15 -14 -12 -13 9 8 45 26 45 8 0 19 9
25 19 12 24 13 42 1 22 -7 -11 -10 -9 -16 8 -4 14 -12 20 -21 17 -8 -3 -14 1
-14 9 0 8 -7 15 -16 15 -12 0 -14 -4 -7 -12z"/>
<path d="M5278 213 c-36 -44 -49 -73 -39 -92 11 -21 11 -61 -1 -61 -4 0 -8 9
-8 20 0 29 -16 24 -34 -10 -8 -17 -10 -28 -5 -25 5 4 9 2 9 -4 0 -5 -4 -13
-10 -16 -20 -12 -10 -25 20 -25 17 0 34 7 40 18 11 16 11 16 6 0 -5 -16 2 -18
49 -18 30 0 55 5 55 10 0 6 5 10 11 10 5 0 7 -5 4 -10 -10 -16 46 -1 67 18 10
8 15 19 11 25 -3 5 -1 7 4 4 6 -4 17 8 24 26 7 17 17 35 22 38 5 4 6 13 2 20
-6 9 -10 7 -16 -9 -6 -15 -13 -20 -25 -15 -15 6 -15 7 -2 12 11 4 13 12 7 26
-8 19 -8 19 -15 -2 -3 -13 -11 -23 -17 -23 -6 0 -3 -6 8 -13 11 -9 15 -19 10
-27 -6 -10 -9 -9 -16 1 -6 10 -13 6 -30 -14 -25 -33 -38 -29 -15 5 9 12 16 30
16 40 0 9 7 21 16 26 21 11 9 33 -12 25 -9 -3 -20 0 -25 8 -7 11 -9 11 -9 -3
0 -9 5 -20 10 -23 19 -12 10 -32 -24 -50 -19 -11 -33 -22 -30 -27 3 -4 -1 -5
-9 -2 -8 3 -18 0 -23 -7 -5 -8 -3 -10 5 -4 9 5 9 1 -1 -14 -7 -12 -14 -17 -16
-12 -2 6 -10 7 -19 4 -13 -5 -14 1 -10 38 4 37 9 60 17 89 1 3 5 -3 9 -13 6
-17 8 -16 29 6 l23 24 -25 -2 c-14 -2 -29 1 -32 6 -3 5 0 8 7 7 7 -2 15 5 17
15 2 9 -1 17 -6 17 -5 0 -16 -8 -24 -17z"/>
</g>
</svg>
